<svg width="85" height="85" viewBox="0 0 85 85" fill="none" xmlns="http://www.w3.org/2000/svg">
<ellipse cx="42.1554" cy="42.5" rx="42.1554" ry="42.5" fill="#00B074" fill-opacity="0.15"/>
<path d="M19.6518 64.2747C22.8187 64.2747 25.4062 61.6627 25.4062 58.466V21.041H59.006V58.466C59.006 61.6627 56.4184 64.2747 53.2516 64.2747" fill="#00B074"/>
<path d="M47.4972 58.4659V54.0607H13.8974V58.4659C13.8974 61.6626 16.485 64.2746 19.6518 64.2746H53.2516C50.0847 64.2746 47.4972 61.6626 47.4972 58.4659Z" fill="#0A5239"/>
<path d="M35.718 28.4868H31.4311V30.3581H35.718V28.4868Z" fill="white"/>
<path d="M52.2088 28.4868H39.0393V30.3581H52.2088V28.4868Z" fill="#F7C604"/>
<path d="M35.718 35.1141H31.4311V36.9854H35.718V35.1141Z" fill="white"/>
<path d="M52.2088 35.1141H39.0393V36.9854H52.2088V35.1141Z" fill="#F7C604"/>
<path d="M35.718 41.7417H31.4311V43.6129H35.718V41.7417Z" fill="white"/>
<path d="M52.2088 41.7417H39.0393V43.6129H52.2088V41.7417Z" fill="#F7C604"/>
<path d="M35.718 48.369H31.4311V50.2403H35.718V48.369Z" fill="white"/>
<path d="M52.2088 48.369H39.0393V50.2403H52.2088V48.369Z" fill="#F7C604"/>
<path opacity="0.1" d="M59.006 48.681V26.4209C58.5426 26.3429 58.0405 26.304 57.5384 26.304C51.3978 26.304 46.4157 31.3329 46.4157 37.5315C46.4157 43.73 51.3978 48.7589 57.5384 48.7589C58.0405 48.7979 58.5426 48.759 59.006 48.681Z" fill="#0C1E5B"/>
<path d="M61.4398 46.5371C67.5828 46.5371 72.5626 41.5103 72.5626 35.3095C72.5626 29.1086 67.5828 24.0818 61.4398 24.0818C55.2969 24.0818 50.317 29.1086 50.317 35.3095C50.317 41.5103 55.2969 46.5371 61.4398 46.5371Z" fill="#FF5B5B"/>
<path d="M63.4089 36.0889V29.1107H59.4696V36.0889H56.8434L61.4392 41.5077L66.035 36.0889H63.4089Z" fill="white"/>
</svg>
